<?xml version="1.0" encoding="UTF-8"?>
<svg width="24px" height="22px" viewBox="0 0 24 22" version="1.1" xmlns="http://www.w3.org/2000/svg" xmlns:xlink="http://www.w3.org/1999/xlink">
    <!-- Generator: Sketch 46.2 (44496) - http://www.bohemiancoding.com/sketch -->
    <title>icon-cart</title>
    <desc>Created with Sketch.</desc>
    <defs></defs>
    <g id="Homepage" stroke="none" stroke-width="1" fill="none" fill-rule="evenodd">
        <g id="Mobile---Homepage" transform="translate(-286.000000, -16.000000)" fill="#000000">
            <g id="Mobile/Header">
                <g id="icon-cart" transform="translate(286.000000, 16.000000)">
                    <path d="M10.962132,17.7704548 C9.804372,17.7704548 8.865972,18.7131397 8.865972,19.8761863 C8.865972,21.0385699 9.804372,21.9812548 10.962132,21.9812548 C12.119232,21.9812548 13.057692,21.0385699 13.057692,19.8761863 C13.057692,18.7131397 12.119232,17.7704548 10.962132,17.7704548" id="Fill-1"></path>
                    <path d="M18.589338,17.7704548 C17.431578,17.7704548 16.493118,18.7131397 16.493118,19.8761863 C16.493118,21.0385699 17.431578,21.9812548 18.589338,21.9812548 C19.746438,21.9812548 20.684898,21.0385699 20.684898,19.8761863 C20.684898,18.7131397 19.746438,17.7704548 18.589338,17.7704548" id="Fill-3"></path>
                    <path d="M8.789208,12.2618597 L8.652108,11.7568844 C8.626488,11.6620132 8.593008,11.5738323 8.551548,11.4942707 L6.919128,5.52841315 L22.421508,5.52841315 L19.819008,12.2618597 L8.789208,12.2618597 Z M20.837748,13.3967584 C20.865828,13.3680077 20.890188,13.33552 20.910948,13.3006214 C20.910948,13.3006214 20.910948,13.3000789 20.911548,13.2994762 C20.917608,13.2890488 20.923728,13.2792241 20.928588,13.268194 C20.951688,13.2259419 20.969988,13.1819419 20.983488,13.1347474 L23.925048,5.5359474 C24.108228,5.06285699 23.947128,4.52527342 23.534448,4.23234192 C23.260308,4.03771726 22.932828,3.93320219 22.597068,3.93320219 L6.574248,3.93320219 L5.718708,0.764237808 C5.595108,0.358955616 5.223528,0.0815145205 4.801608,0.0794652055 L0.898188,0.0602980822 C0.388188,0.0621665753 -0.001812,0.347985753 -1.19999996e-05,0.815048767 C0.002448,1.28211178 0.394848,1.75465973 0.904248,1.75218849 L4.343388,1.83729534 L8.274888,16.7757173 L20.873748,16.7757173 C21.494088,16.7757173 21.997368,16.4182323 21.997368,15.9780515 C21.997368,15.5373885 21.494088,15.1805063 20.873748,15.1805063 L9.576528,15.1805063 L9.168828,13.668594 L20.206548,13.668594 C20.463108,13.668594 20.691588,13.5614871 20.837748,13.3967584 L20.837748,13.3967584 Z" id="Fill-7"></path>
                </g>
            </g>
        </g>
    </g>
</svg>
