<svg id="Layer_1" data-name="Layer 1" xmlns="http://www.w3.org/2000/svg" width="56" height="28" viewBox="0 0 56 28">
    <title>ui-accordion-plus</title>
    <circle cx="14" cy="14" r="14" style="fill:#e35737"/>
    <polygon points="12.3 12.3 8 12.3 8 15.9 12.3 15.9 12.3 20.3 15.9 20.3 15.9 15.9 20.3 15.9 20.3 12.3 15.9 12.3 15.9 8 12.3 8 12.3 12.3" style="fill:#fff"/>
    <circle cx="42" cy="14" r="14" style="fill:#e9b3b3"/>
    <polygon points="40.3 12.3 36 12.3 36 15.9 40.3 15.9 40.3 20.3 43.9 20.3 43.9 15.9 48.3 15.9 48.3 12.3 43.9 12.3 43.9 8 40.3 8 40.3 12.3" style="fill:#fff"/>
</svg>
