<?xml version="1.0" standalone="no"?>
<!DOCTYPE svg PUBLIC "-//W3C//DTD SVG 20010904//EN"
 "http://www.w3.org/TR/2001/REC-SVG-20010904/DTD/svg10.dtd">
<svg version="1.0" xmlns="http://www.w3.org/2000/svg"
 width="260.000000pt" height="260.000000pt" viewBox="0 0 260.000000 260.000000"
 preserveAspectRatio="xMidYMid meet">
<metadata>
Created by potrace 1.11, written by Peter Selinger 2001-2013
</metadata>
<g transform="translate(0.000000,260.000000) scale(0.100000,-0.100000)"
fill="#000000" stroke="none">
<path d="M0 1300 l0 -1300 1300 0 1300 0 0 1300 0 1300 -1300 0 -1300 0 0
-1300z m590 795 l0 -345 -85 0 -85 0 0 338 c0 186 3 342 7 345 3 4 42 7 85 7
l78 0 0 -345z m236 316 c114 -52 138 -200 46 -283 l-37 -34 29 -24 c91 -75 83
-222 -15 -287 -33 -22 -56 -28 -110 -31 l-69 -4 0 71 c0 67 1 71 23 71 48 0
92 54 80 99 -6 24 -50 51 -83 51 -17 0 -20 6 -20 50 0 46 2 50 24 50 14 0 37
11 52 23 53 46 23 127 -47 127 l-29 0 0 70 0 70 58 0 c34 0 74 -8 98 -19z
m394 -44 c0 -54 -3 -64 -22 -72 -12 -6 -31 -23 -42 -38 -19 -25 -21 -43 -21
-150 0 -134 13 -177 60 -199 23 -10 25 -16 25 -85 0 -82 -1 -82 -75 -62 -59
16 -104 55 -131 113 -22 47 -24 63 -24 221 0 146 3 176 20 213 34 74 100 121
173 122 l37 0 0 -63z m213 33 c43 -29 76 -78 88 -127 12 -52 11 -320 -1 -364
-23 -83 -90 -141 -178 -155 l-42 -7 0 76 c0 68 2 76 21 82 11 4 29 21 40 38
16 27 19 51 19 157 0 106 -3 130 -19 157 -11 17 -29 34 -40 38 -18 6 -21 14
-21 72 l0 66 50 -5 c29 -3 63 -15 83 -28z m509 -295 c121 -176 224 -328 229
-337 9 -17 2 -18 -88 -18 l-98 1 -197 273 -198 274 0 66 0 67 67 -3 67 -3 218
-320z m228 58 c0 -174 -3 -264 -10 -257 -5 5 -41 59 -80 119 l-70 110 0 148 0
147 80 0 80 0 0 -267z m-491 -114 l71 -96 0 -101 0 -102 -80 0 -80 0 0 207 c0
117 4 203 9 198 4 -6 40 -53 80 -106z m-1089 -754 l0 -345 -85 0 -85 0 0 338
c0 186 3 342 7 345 3 4 42 7 85 7 l78 0 0 -345z m236 316 c114 -52 138 -200
46 -283 l-37 -34 29 -24 c91 -75 83 -222 -15 -287 -33 -22 -56 -28 -110 -31
l-69 -4 0 71 c0 67 1 71 23 71 48 0 92 54 80 99 -6 24 -50 51 -83 51 -17 0
-20 6 -20 50 0 46 2 50 24 50 14 0 37 11 52 23 53 46 23 127 -47 127 l-29 0 0
70 0 70 58 0 c34 0 74 -8 98 -19z m394 -44 c0 -54 -3 -64 -22 -72 -12 -6 -31
-23 -42 -38 -19 -25 -21 -43 -21 -150 0 -134 13 -177 60 -199 23 -10 25 -16
25 -85 0 -82 -1 -82 -75 -62 -59 16 -104 55 -131 113 -22 47 -24 63 -24 221 0
146 3 176 20 213 34 74 100 121 173 122 l37 0 0 -63z m213 33 c43 -29 76 -78
88 -127 12 -52 11 -320 -1 -364 -23 -83 -90 -141 -178 -155 l-42 -7 0 76 c0
68 2 76 21 82 11 4 29 21 40 38 16 27 19 51 19 157 0 106 -3 130 -19 157 -11
17 -29 34 -40 38 -18 6 -21 14 -21 72 l0 66 50 -5 c29 -3 63 -15 83 -28z m509
-295 c121 -176 224 -328 229 -337 9 -17 2 -18 -88 -18 l-98 1 -197 273 -198
274 0 66 0 67 67 -3 67 -3 218 -320z m228 58 c0 -174 -3 -264 -10 -257 -5 5
-41 59 -80 119 l-70 110 0 148 0 147 80 0 80 0 0 -267z m-491 -114 l71 -96 0
-101 0 -102 -80 0 -80 0 0 207 c0 117 4 203 9 198 4 -6 40 -53 80 -106z
m-1089 -754 l0 -345 -85 0 -85 0 0 338 c0 186 3 342 7 345 3 4 42 7 85 7 l78
0 0 -345z m236 316 c114 -52 138 -200 46 -283 l-37 -34 29 -24 c91 -75 83
-222 -15 -287 -33 -22 -56 -28 -110 -31 l-69 -4 0 71 c0 67 1 71 23 71 48 0
92 54 80 99 -6 24 -50 51 -83 51 -17 0 -20 6 -20 50 0 46 2 50 24 50 14 0 37
11 52 23 53 46 23 127 -47 127 l-29 0 0 70 0 70 58 0 c34 0 74 -8 98 -19z
m394 -44 c0 -54 -3 -64 -22 -72 -12 -6 -31 -23 -42 -38 -19 -25 -21 -43 -21
-150 0 -134 13 -177 60 -199 23 -10 25 -16 25 -85 0 -82 -1 -82 -75 -62 -59
16 -104 55 -131 113 -22 47 -24 63 -24 221 0 146 3 176 20 213 34 74 100 121
173 122 l37 0 0 -63z m213 33 c43 -29 76 -78 88 -127 12 -52 11 -320 -1 -364
-23 -83 -90 -141 -178 -155 l-42 -7 0 76 c0 68 2 76 21 82 11 4 29 21 40 38
16 27 19 51 19 157 0 106 -3 130 -19 157 -11 17 -29 34 -40 38 -18 6 -21 14
-21 72 l0 66 50 -5 c29 -3 63 -15 83 -28z m509 -295 c121 -176 224 -328 229
-337 9 -17 2 -18 -88 -18 l-98 1 -197 273 -198 274 0 66 0 67 67 -3 67 -3 218
-320z m228 58 c0 -174 -3 -264 -10 -257 -5 5 -41 59 -80 119 l-70 110 0 148 0
147 80 0 80 0 0 -267z m-491 -114 l71 -96 0 -101 0 -102 -80 0 -80 0 0 207 c0
117 4 203 9 198 4 -6 40 -53 80 -106z"/>
</g>
</svg>
