<svg id="Layer_1" data-name="Layer 1" xmlns="http://www.w3.org/2000/svg" width="28" height="30" viewBox="0 0 28 30"><title>ui-calendar-icon</title><rect y="3" width="28" height="27" style="fill:#fff"/><rect y="3" width="28" height="9" style="fill:#e35737"/><rect y="12" width="28" height="1" style="fill:#ba472d"/><g style="isolation:isolate"><text transform="translate(7.3 25)" style="isolation:isolate;font-size:12px;font-family:PTMono-Bold, PT Mono;font-weight:700">31</text></g><path d="M7,1H7A2,2,0,0,1,9,3V7A2,2,0,0,1,7,9H7A2,2,0,0,1,5,7V3A2,2,0,0,1,7,1Z" style="fill:#ba472d"/><path d="M21,1h0a2,2,0,0,1,2,2V7a2,2,0,0,1-2,2h0a2,2,0,0,1-2-2V3A2,2,0,0,1,21,1Z" style="fill:#ba472d"/><path d="M7,0H7A2,2,0,0,1,9,2V6A2,2,0,0,1,7,8H7A2,2,0,0,1,5,6V2A2,2,0,0,1,7,0Z" style="fill:#e9b3b3"/><path d="M21,0h0a2,2,0,0,1,2,2V6a2,2,0,0,1-2,2h0a2,2,0,0,1-2-2V2A2,2,0,0,1,21,0Z" style="fill:#e9b3b3"/></svg>
