<svg xmlns="http://www.w3.org/2000/svg" width="24" height="24" viewBox="0 0 24 24">
  <path fill="#FFF" fill-rule="evenodd" d="M169.08,10.68 C165.24,8.4 158.82,8.16 155.16,9.3 C154.56,9.48 153.96,9.12 153.78,8.58 C153.6,7.98 153.96,7.38 154.5,7.2 C158.76,5.94 165.78,6.18 170.22,8.82 C170.76,9.12 170.94,9.84 170.64,10.38 C170.34,10.8 169.62,10.98 169.08,10.68 M168.96,14.04 C168.66,14.46 168.12,14.64 167.7,14.34 C164.46,12.36 159.54,11.76 155.76,12.96 C155.28,13.08 154.74,12.84 154.62,12.36 C154.5,11.88 154.74,11.34 155.22,11.22 C159.6,9.9 165,10.56 168.72,12.84 C169.08,13.02 169.26,13.62 168.96,14.04 M167.52,17.34 C167.28,17.7 166.86,17.82 166.5,17.58 C163.68,15.84 160.14,15.48 155.94,16.44 C155.52,16.56 155.16,16.26 155.04,15.9 C154.92,15.48 155.22,15.12 155.58,15 C160.14,13.98 164.1,14.4 167.22,16.32 C167.64,16.5 167.7,16.98 167.52,17.34 M162,0 C155.4,0 150,5.4 150,12 C150,18.6 155.4,24 162,24 C168.6,24 174,18.6 174,12 C174,5.4 168.66,0 162,0" transform="translate(-150)"/>
</svg>
