<svg xmlns="http://www.w3.org/2000/svg" width="25" height="15" viewBox="0 0 25 15">
  <path fill="#FFF" fill-rule="evenodd" d="M1227.128,120.864 C1225.568,120.864 1224.32,122.112 1224.32,123.672 C1224.32,125.208 1225.568,126.48 1227.128,126.48 C1228.688,126.48 1229.936,125.208 1229.936,123.672 C1229.936,122.112 1228.688,120.864 1227.128,120.864 Z M1227.128,112.776 C1225.568,112.776 1224.32,114.024 1224.32,115.584 C1224.32,117.12 1225.568,118.392 1227.128,118.392 C1228.688,118.392 1229.936,117.12 1229.936,115.584 C1229.936,114.024 1228.688,112.776 1227.128,112.776 Z M1232.408,108.528 C1234.376,111.696 1235.168,115.728 1235.168,119.424 C1235.168,122.856 1234.328,127.368 1232.408,130.272 L1235.024,131.76 C1237.544,128.472 1238.504,123.192 1238.504,119.136 C1238.504,115.176 1237.376,110.28 1235.024,107.04 L1232.408,108.528 Z" transform="rotate(90 677.912 -546.1)"/>
</svg>
