<svg xmlns="http://www.w3.org/2000/svg" width="24" height="24" viewBox="0 0 24 24">
  <path fill-rule="evenodd" d="M112.819178,24 L101.324616,24 C100.592836,24 100,23.4067958 100,22.6753014 L100,1.32460548 C100,0.592924852 100.592929,0 101.324616,0 L122.675477,0 C123.406977,0 124,0.592924852 124,1.32460548 L124,22.6753014 C124,23.4068889 123.406884,24 122.675477,24 L116.559653,24 L116.559653,14.7058773 L119.679261,14.7058773 L120.146378,11.0837928 L116.559653,11.0837928 L116.559653,8.7713207 C116.559653,7.72264365 116.850856,7.00800484 118.354645,7.00800484 L120.272656,7.00716672 L120.272656,3.76754527 C119.940943,3.72340417 118.802392,3.62478513 117.477776,3.62478513 C114.712417,3.62478513 112.819178,5.31276313 112.819178,8.41260443 L112.819178,11.0837928 L109.691561,11.0837928 L109.691561,14.7058773 L112.819178,14.7058773 L112.819178,24 L112.819178,24 Z" transform="translate(-100)"/>
</svg>
