<svg xmlns="http://www.w3.org/2000/svg" width="24" height="22" viewBox="0 0 24 22">
  <g fill-rule="evenodd">
    <path d="M10.962132 17.7704548C9.804372 17.7704548 8.865972 18.7131397 8.865972 19.8761863 8.865972 21.0385699 9.804372 21.9812548 10.962132 21.9812548 12.119232 21.9812548 13.057692 21.0385699 13.057692 19.8761863 13.057692 18.7131397 12.119232 17.7704548 10.962132 17.7704548M18.589338 17.7704548C17.431578 17.7704548 16.493118 18.7131397 16.493118 19.8761863 16.493118 21.0385699 17.431578 21.9812548 18.589338 21.9812548 19.746438 21.9812548 20.684898 21.0385699 20.684898 19.8761863 20.684898 18.7131397 19.746438 17.7704548 18.589338 17.7704548M8.789208 12.2618597L8.652108 11.7568844C8.626488 11.6620132 8.593008 11.5738323 8.551548 11.4942707L6.919128 5.52841315 22.421508 5.52841315 19.819008 12.2618597 8.789208 12.2618597zM20.837748 13.3967584C20.865828 13.3680077 20.890188 13.33552 20.910948 13.3006214 20.910948 13.3006214 20.910948 13.3000789 20.911548 13.2994762 20.917608 13.2890488 20.923728 13.2792241 20.928588 13.268194 20.951688 13.2259419 20.969988 13.1819419 20.983488 13.1347474L23.925048 5.5359474C24.108228 5.06285699 23.947128 4.52527342 23.534448 4.23234192 23.260308 4.03771726 22.932828 3.93320219 22.597068 3.93320219L6.574248 3.93320219 5.718708.764237808C5.595108.358955616 5.223528.0815145205 4.801608.0794652055L.898188.0602980822C.388188.0621665753-.001812.347985753-.0000119999996.815048767.002448 1.28211178.394848 1.75465973.904248 1.75218849L4.343388 1.83729534 8.274888 16.7757173 20.873748 16.7757173C21.494088 16.7757173 21.997368 16.4182323 21.997368 15.9780515 21.997368 15.5373885 21.494088 15.1805063 20.873748 15.1805063L9.576528 15.1805063 9.168828 13.668594 20.206548 13.668594C20.463108 13.668594 20.691588 13.5614871 20.837748 13.3967584L20.837748 13.3967584z"/>
  </g>
</svg>
