<svg xmlns="http://www.w3.org/2000/svg" width="24" height="20" viewBox="0 0 24 20">
  <path fill-rule="evenodd" d="M74,4.36764175 C73.1181546,4.76923077 72.1686917,5.04080896 71.1727417,5.1621524 C72.1898222,4.5381004 72.9702412,3.54857349 73.3379116,2.3698086 C72.3856313,2.94763453 71.3333333,3.36800289 70.2091918,3.593355 C69.3132594,2.61249549 68.0327522,2 66.6156013,2 C63.8982215,2 61.693608,4.26074395 61.693608,7.04875406 C61.693608,7.44456482 61.735869,7.82881907 61.8203909,8.19862766 C57.7281211,7.9877212 54.100722,5.97977609 51.6707167,2.92163236 C51.2466984,3.66991694 51.0044022,4.5381004 51.0044022,5.46262189 C51.0044022,7.21343445 51.8735693,8.75911882 53.1949287,9.66486096 C52.389153,9.64030336 51.6284557,9.41061755 50.9635499,9.0350307 L50.9635499,9.09714698 C50.9635499,11.5442398 52.6610319,13.5854099 54.9149498,14.0476706 C54.5022011,14.166125 54.0669132,14.2253521 53.6175383,14.2253521 C53.3005811,14.2253521 52.9906674,14.1950163 52.6906145,14.1357891 C53.3174855,16.1408451 55.1347068,17.6013001 57.2900158,17.6403034 C55.6052122,18.9953052 53.4808945,19.8028169 51.1748547,19.8028169 C50.7776017,19.8028169 50.3845747,19.7797039 50,19.7334778 C52.1792569,21.163597 54.7684451,22 57.5478077,22 C66.6057404,22 71.5573164,14.3076923 71.5573164,7.63524738 C71.5573164,7.41567353 71.5530903,7.19609967 71.5446381,6.98085952 C72.5067794,6.26868906 73.3421377,5.38028169 74,4.36764175" transform="translate(-50 -2)"/>
</svg>
