<?xml version="1.0" encoding="UTF-8"?>
<svg width="23px" height="23px" viewBox="0 0 23 23" version="1.1" xmlns="http://www.w3.org/2000/svg" xmlns:xlink="http://www.w3.org/1999/xlink">
    <!-- Generator: Sketch 46.2 (44496) - http://www.bohemiancoding.com/sketch -->
    <title>icon-help-selected</title>
    <desc>Created with Sketch.</desc>
    <defs></defs>
    <g id="Homepage" stroke="none" stroke-width="1" fill="none" fill-rule="evenodd">
        <g id="Mobile---Help-Open" transform="translate(-254.000000, -15.000000)">
            <g id="Mobile/Header">
                <g id="icon-help-selected" transform="translate(255.000000, 16.000000)">
                    <circle id="Oval-2" stroke="#E35737" stroke-width="1.5" fill="#E35737" cx="10.5" cy="10.5" r="10.5"></circle>
                    <path d="M8.7185,12.374 L11.2385,12.374 L11.3825,10.646 C13.1105,10.25 14.2805,8.702 14.2805,6.938 C14.2805,4.724 12.6245,3.068 10.4105,3.068 C8.2325,3.068 6.4865,4.778 6.5945,6.956 L9.2225,6.956 L9.2225,6.74 C9.2225,6.02 9.6185,5.264 10.4285,5.264 C11.2565,5.264 11.6705,6.128 11.6705,6.848 C11.6705,8.144 10.5725,8.864 9.3665,8.864 C9.1505,8.864 8.9345,8.846 8.7185,8.792 L8.7185,12.374 Z M10.0145,14.156 C9.1325,14.156 8.4125,14.858 8.4125,15.74 C8.4125,16.622 9.1325,17.36 10.0145,17.36 C10.8965,17.36 11.6165,16.622 11.6165,15.74 C11.6165,14.858 10.8965,14.156 10.0145,14.156 Z" id="?" fill="#FFFFFF"></path>
                </g>
            </g>
        </g>
    </g>
</svg>
